<svg version="1.1" id="Capa_1" xmlns="http://www.w3.org/2000/svg" xmlns:xlink="http://www.w3.org/1999/xlink" x="0px" y="0px"
	 viewBox="0 0 1200 1200" style="enable-background:new 0 0 1200 1200;" xml:space="preserve">
<style type="text/css">
	.st0{fill:#1F609C;}
	.st1{fill:#C42A27;}
</style>
<g>
	<g>
		<defs>
			<path id="SVGID_1_" d="M558,279.8c0,0,43.1-10.4,43.1,10.6c0,10.5-4.1,9.5-8.3,8.5c-4.2-1-8.4-2-8.4,8.8c0,8.2,2.4,7.9,5.4,7.6
				c4.9-0.4,11.2-0.9,11.2,34.1l26.3-25.9h16.4c0,0,8.7-66.2-54.3-66.2C558.4,257.3,558,279.8,558,279.8"/>
		</defs>
		<use xlink:href="#SVGID_1_"  style="overflow:visible;fill:#1867A8;"/>
		<clipPath id="SVGID_2_">
			<use xlink:href="#SVGID_1_"  style="overflow:visible;"/>
		</clipPath>
	</g>
	<g>
		<defs>
			<path id="SVGID_3_" d="M291.3,294.3c-34.4,20.1-70.5,40.1-104,36.9c0,0-5,18.7,37,22.5c42,3.8,38.8,14.5-5.5,47.7
				c-44.3,33.2-74.9,40.7-74.9,96.4c0,0,23.3-36.4,65.3-36.4c0,0-9.6,28.4-46.1,83c-36.5,54.6-52.5,114-52,148.9
				c0,0,120.1-165.7,257.5-218c0,0,11.9-17.6-49.3-15.4c0,0-11.9-42.8,44.3-70.1c56.2-27.3,65.7-29.4,65.7-40.2
				c0,0,9.1-86.7-44.7-92.1c-1.6-0.2-3.3-0.2-5-0.2C353.8,257.1,323.2,275.7,291.3,294.3"/>
		</defs>
		<use xlink:href="#SVGID_3_"  style="overflow:visible;fill:#1867A8;"/>
		<clipPath id="SVGID_4_">
			<use xlink:href="#SVGID_3_"  style="overflow:visible;"/>
		</clipPath>
	</g>
	<g>
		<defs>
			<path id="SVGID_5_" d="M345.2,428.7c142.9-19.3,158,53.5,95.9,100.7c-97.8,74.3-170.7,152.1-170.7,152.1
				c2.7,15.6,2.4,30.3,0.2,43.6h79.6c15.6-54.6,39.5-97.4,73.6-119.7c111.7-73.1,119.6-144.5,119.6-144.5
				c-12.3-52.8-46.2-68.8-82.5-68.8C405.9,392.1,345.2,428.7,345.2,428.7"/>
		</defs>
		<use xlink:href="#SVGID_5_"  style="overflow:visible;fill:#1867A8;"/>
		<clipPath id="SVGID_6_">
			<use xlink:href="#SVGID_5_"  style="overflow:visible;"/>
		</clipPath>
	</g>
	<g>
		<defs>
			<path id="SVGID_7_" d="M135.8,725h63.1c42.8-149.3,216.7-231.3,216.7-231.3C265.6,539.5,182.2,634.5,135.8,725"/>
		</defs>
		<use xlink:href="#SVGID_7_"  style="overflow:visible;fill:#1867A8;"/>
		<clipPath id="SVGID_8_">
			<use xlink:href="#SVGID_7_"  style="overflow:visible;"/>
		</clipPath>
	</g>
	<g>
		<defs>
			<path id="SVGID_9_" d="M370.6,725h44.2c16.5-13.7,37-23.7,61.4-23.7c0,0,11.4-42.3-25.1-91.3C451.2,610,394,638.3,370.6,725"/>
		</defs>
		<use xlink:href="#SVGID_9_"  style="overflow:visible;fill:#1867A8;"/>
		<clipPath id="SVGID_10_">
			<use xlink:href="#SVGID_9_"  style="overflow:visible;"/>
		</clipPath>
	</g>
	<g>
		<defs>
			<path id="SVGID_11_" d="M463.9,600c0,0,44.3,51,46.5,125h77.9c-14-24.2-24-42.4-24-55.4c0-43.9,32.9-90,63-138.1
				c30.1-48.2-33.8-96.4-33.8-96.4C568,598.9,463.9,600,463.9,600"/>
		</defs>
		<use xlink:href="#SVGID_11_"  style="overflow:visible;fill:#1867A8;"/>
		<clipPath id="SVGID_12_">
			<use xlink:href="#SVGID_11_"  style="overflow:visible;"/>
		</clipPath>
	</g>
</g>
<g>
	<g>
		<defs>
			<path id="SVGID_13_" d="M877.6,524c0,72.3,86.3,54.1,86.3,54.1s-70.3-15.5-46.1-40.2c0,0,29.7,12.8,49.3-3.2
				c0,0-54.8,1.1-54.8-48.2c0-25.2,11.9-25.2,11.9-25.2s-2.1-0.4-5.3-0.4C906.6,460.9,877.6,466.9,877.6,524"/>
		</defs>
		<use xlink:href="#SVGID_13_"  style="overflow:visible;fill:#BC0F18;"/>
		<clipPath id="SVGID_14_">
			<use xlink:href="#SVGID_13_"  style="overflow:visible;"/>
		</clipPath>
	</g>
	<g>
		<defs>
			<path id="SVGID_15_" d="M901.8,620.3c-41.5,0-52.5,33.2-52.5,33.2c131.5,0,121.9-33.2,121.9-33.2H901.8z"/>
		</defs>
		<use xlink:href="#SVGID_15_"  style="overflow:visible;fill:#BC0F18;"/>
		<clipPath id="SVGID_16_">
			<use xlink:href="#SVGID_15_"  style="overflow:visible;"/>
		</clipPath>
	</g>
	<g>
		<defs>
			<path id="SVGID_17_" d="M985.3,620.3l16,13.9v24.1c39.7,0,37.9-55.1,37.9-55.1c-4.6,9.6-13.2,9.1-13.2,9.1
				c6.8-14.5,7.3-43.4,7.3-43.4C1013.6,602.1,985.3,620.3,985.3,620.3"/>
		</defs>
		<use xlink:href="#SVGID_17_"  style="overflow:visible;fill:#BC0F18;"/>
		<clipPath id="SVGID_18_">
			<use xlink:href="#SVGID_17_"  style="overflow:visible;"/>
		</clipPath>
	</g>
	<g>
		<defs>
			<path id="SVGID_19_" d="M1061.3,470.4c-20.5,6.4-45.9-5.6-45.9-5.6l35.6,47.4v24.9c50-82.7,5.5-86.7,5.5-86.7
				S1081.9,464,1061.3,470.4"/>
		</defs>
		<use xlink:href="#SVGID_19_"  style="overflow:visible;fill:#BC0F18;"/>
		<clipPath id="SVGID_20_">
			<use xlink:href="#SVGID_19_"  style="overflow:visible;"/>
		</clipPath>
	</g>
	<g>
		<defs>
			<path id="SVGID_21_" d="M871.6,324.8c-7.8,6.4-5.7,12,8.2,28.4c6.2,7.2,1.8,22.5,1.8,22.5s-16.2,7-32.4-17
				c-9.1-13.5-19.2-2.3-39.3,5.2c-20.1,7.5-27.9,11.8-35.6-12.9l-19.2,19.3c0,0,24.7,18.7,89,18.7c64.4,0,97.5,1.3,102.9,9.4
				c0,0-12.1-23.3-44.1-23.3c0,0,5.9-16.6-1.8-27.3c-6.7-9.2-18.1-24.3-26.1-24.3C873.9,323.5,872.7,323.9,871.6,324.8"/>
		</defs>
		<use xlink:href="#SVGID_21_"  style="overflow:visible;fill:#BC0F18;"/>
		<clipPath id="SVGID_22_">
			<use xlink:href="#SVGID_21_"  style="overflow:visible;"/>
		</clipPath>
	</g>
	<g>
		<defs>
			<path id="SVGID_23_" d="M447,140.3c0,0,53.4,0.8,79,33.8c0,0-103.6-37.8-270.7,66.6c0,0,227.4-46.6,208.9,120.2
				c0,0,93.8,9.1,93.8,89.4c0,0,32.4-25.3,35.6-78.7c0,0-61.6,5.6-61.6-73.1c0-63.4,39.7-75.5,55.5-75.5c64.4,0,87,100.4,87,100.4
				l28.1-25.7h8.9c0,0,4.1-46.6-6.2-66.7c0,0,4.1-12,26.7,18.5c22.6,30.5,32.9,11.2,32.2-8.8c-0.7-20.1-18.5-57-100-67.5
				c0,0-2.7-12.8,43.8-12.8c46.6,0,101.5,54.6,85.6,126.9c0,0,37,17.1,55.7-4.8c26-30.5,8-52.2,8-52.2s1.4,19.5-17.1,27
				c0,0,3.3-166-195.9-166C484,91.3,447,140.3,447,140.3"/>
		</defs>
		<use xlink:href="#SVGID_23_"  style="overflow:visible;fill:#BC0F18;"/>
		<clipPath id="SVGID_24_">
			<use xlink:href="#SVGID_23_"  style="overflow:visible;"/>
		</clipPath>
	</g>
	<g>
		<defs>
			<path id="SVGID_25_" d="M622.4,405.6c0,29.4,43.8,56.2,43.8,69.6c0,48.9-72.6,86.7-72.6,161.7c0,35.9,14.5,62.3,42.1,88.1h260.2
				c-1.3-3.7-2.4-7.7-3-12c-7.5-49.8-96.6-26.5-126-23.3c-29.4,3.2-82.9,9.6-82.9-85.9c0-95.6,52-110,52-110
				c-29.4-20.1-65.1-49-65.1-86.7c0-37.7,30.1-69.9,30.1-69.9S622.4,376.2,622.4,405.6"/>
		</defs>
		<use xlink:href="#SVGID_25_"  style="overflow:visible;fill:#BC0F18;"/>
		<clipPath id="SVGID_26_">
			<use xlink:href="#SVGID_25_"  style="overflow:visible;"/>
		</clipPath>
	</g>
</g>
<g>
	<path d="M186.4,744.7l1.9,27.7h-1.9c-2.5-8.3-6.1-14.2-10.8-17.9c-4.7-3.6-10.3-5.5-16.9-5.5c-5.5,0-10.5,1.4-14.9,4.1
		c-4.4,2.7-7.9,7.1-10.5,13.1c-2.5,6-3.8,13.5-3.8,22.4c0,7.4,1.2,13.7,3.6,19.1c2.4,5.4,6,9.5,10.9,12.4c4.8,2.9,10.3,4.3,16.5,4.3
		c5.4,0,10.1-1.1,14.2-3.4s8.6-6.7,13.6-13.5l1.9,1.2c-4.2,7.2-9,12.5-14.5,15.9s-12.1,5-19.7,5c-13.7,0-24.4-5-31.9-15
		c-5.6-7.4-8.4-16.2-8.4-26.3c0-8.1,1.9-15.6,5.6-22.4s8.8-12.1,15.3-15.8c6.5-3.7,13.6-5.6,21.3-5.6c6,0,11.9,1.4,17.7,4.3
		c1.7,0.9,2.9,1.3,3.7,1.3c1.1,0,2.1-0.4,2.9-1.1c1.1-1.1,1.8-2.6,2.3-4.5H186.4z"/>
	<path d="M312.3,751v32.2h18.2c4.7,0,7.9-0.7,9.5-2.1c2.1-1.8,3.3-5.1,3.5-9.7h2.3v28.3h-2.3c-0.6-4-1.1-6.5-1.7-7.6
		c-0.7-1.4-1.9-2.5-3.6-3.3c-1.7-0.8-4.2-1.2-7.7-1.2h-18.2v26.8c0,3.6,0.2,5.8,0.5,6.6c0.3,0.8,0.9,1.4,1.7,1.9
		c0.8,0.5,2.4,0.7,4.6,0.7h14.1c4.7,0,8.1-0.3,10.2-1c2.1-0.6,4.2-1.9,6.1-3.8c2.5-2.5,5.1-6.2,7.8-11.2h2.4l-7.2,20.4h-63.9v-2.2
		h2.9c2,0,3.8-0.5,5.6-1.4c1.3-0.6,2.2-1.6,2.7-2.9s0.7-3.9,0.7-7.9v-52.9c0-5.2-0.5-8.3-1.6-9.5c-1.5-1.6-3.9-2.4-7.3-2.4h-2.9
		v-2.2h63.9l0.9,17.8h-2.4c-0.9-4.3-1.8-7.2-2.8-8.8c-1-1.6-2.6-2.8-4.6-3.7c-1.6-0.6-4.5-0.9-8.6-0.9H312.3z"/>
	<path d="M452.6,746.5h22.5l50.7,61v-46.9c0-5-0.6-8.1-1.7-9.4c-1.5-1.7-3.9-2.5-7.2-2.5h-2.9v-2.2h28.9v2.2H540c-3.5,0-6,1-7.5,3.1
		c-0.9,1.3-1.3,4.2-1.3,8.8v68.6H529l-54.6-65.5v50.1c0,5,0.6,8.1,1.7,9.4c1.5,1.7,3.9,2.5,7.2,2.5h2.9v2.2h-28.9v-2.2h2.9
		c3.5,0,6.1-1,7.5-3.1c0.9-1.3,1.3-4.2,1.3-8.8v-56.6c-2.4-2.8-4.2-4.6-5.5-5.5c-1.2-0.9-3.1-1.7-5.5-2.5c-1.2-0.4-3-0.5-5.4-0.5
		V746.5z"/>
	<path d="M708.8,746.5l0.9,19.1h-2.3c-0.4-3.4-1.1-5.8-1.8-7.2c-1.3-2.3-2.9-4-5-5.1c-2.1-1.1-4.9-1.6-8.3-1.6h-11.7v62.2
		c0,5,0.6,8.1,1.7,9.4c1.5,1.7,3.9,2.5,7.2,2.5h2.9v2.2h-35.1v-2.2h2.9c3.5,0,6-1,7.5-3.1c0.9-1.3,1.3-4.2,1.3-8.8v-62.2h-10
		c-3.9,0-6.6,0.3-8.3,0.8c-2.1,0.8-3.9,2.2-5.4,4.4c-1.5,2.2-2.4,5.1-2.7,8.8h-2.3l1-19.1H708.8z"/>
	<path d="M889.1,827.9h-22.1l-28.1-38c-2.1,0.1-3.8,0.1-5.1,0.1c-0.5,0-1.1,0-1.7,0c-0.6,0-1.2,0-1.9-0.1v23.6
		c0,5.1,0.6,8.3,1.7,9.5c1.5,1.8,3.9,2.6,7,2.6h3.2v2.2h-35.5v-2.2h3.1c3.5,0,6-1.1,7.5-3.4c0.9-1.2,1.3-4.2,1.3-8.8v-52.6
		c0-5.1-0.6-8.3-1.7-9.5c-1.6-1.8-4-2.6-7.1-2.6h-3.1v-2.2h30.2c8.8,0,15.3,0.6,19.5,1.9c4.2,1.3,7.7,3.6,10.6,7s4.4,7.4,4.4,12.1
		c0,5-1.7,9.3-5,13c-3.3,3.7-8.5,6.3-15.4,7.8l17.1,23.3c3.9,5.4,7.3,8.9,10.1,10.7c2.8,1.8,6.5,2.9,11,3.4V827.9z M830.2,786.1
		c0.8,0,1.4,0,2,0c0.6,0,1,0,1.4,0c7.9,0,13.9-1.7,17.9-5s6-7.6,6-12.8c0-5.1-1.6-9.2-4.9-12.4c-3.2-3.2-7.5-4.8-12.9-4.8
		c-2.4,0-5.6,0.4-9.6,1.1V786.1z"/>
	<path d="M1025.4,744.7c10.8,0,20.1,4,28,12c7.9,8,11.8,18,11.8,30c0,12.4-4,22.6-11.9,30.8c-7.9,8.2-17.6,12.2-28.9,12.2
		c-11.4,0-21-4-28.8-11.9c-7.8-8-11.6-18.3-11.6-30.9c0-12.9,4.5-23.5,13.4-31.6C1005.2,748.2,1014.5,744.7,1025.4,744.7z
		 M1024.2,749.1c-7.4,0-13.4,2.7-17.8,8.1c-5.6,6.7-8.4,16.6-8.4,29.5c0,13.3,2.9,23.5,8.7,30.7c4.4,5.4,10.3,8.2,17.6,8.2
		c7.8,0,14.2-3,19.3-8.9c5.1-6,7.6-15.4,7.6-28.2c0-13.9-2.8-24.3-8.4-31.1C1038.3,751.8,1032.1,749.1,1024.2,749.1z"/>
</g>
<g>
	<path d="M170.8,853.2v-2.2h29.3v2.2H197c-3.3,0-5.8,1.3-7.5,4c-0.9,1.2-1.3,4.1-1.3,8.6v33c0,8.2-0.8,14.5-2.5,19
		c-1.7,4.5-4.9,8.4-9.7,11.6c-4.8,3.2-11.4,4.8-19.7,4.8c-9,0-15.9-1.5-20.6-4.6c-4.7-3.1-8-7.2-10-12.4c-1.3-3.6-2-10.2-2-20v-31.8
		c0-5-0.7-8.3-2.1-9.8c-1.4-1.6-3.7-2.3-6.8-2.3h-3.1v-2.2h35.8v2.2h-3.2c-3.4,0-5.9,1.1-7.3,3.2c-1,1.4-1.5,4.4-1.5,9v35.5
		c0,3.2,0.3,6.8,0.9,10.9s1.7,7.3,3.2,9.5c1.5,2.3,3.8,4.2,6.7,5.6c2.9,1.5,6.5,2.2,10.7,2.2c5.4,0,10.3-1.2,14.5-3.5
		c4.3-2.3,7.2-5.3,8.8-8.9c1.6-3.6,2.4-9.7,2.4-18.4v-32.9c0-5.1-0.6-8.3-1.7-9.5c-1.6-1.8-4-2.6-7.1-2.6H170.8z"/>
	<path d="M199.8,850.9h22.5l50.7,61V865c0-5-0.6-8.1-1.7-9.4c-1.5-1.7-3.9-2.5-7.2-2.5h-2.9v-2.2h28.9v2.2h-2.9c-3.5,0-6,1-7.5,3.1
		c-0.9,1.3-1.3,4.2-1.3,8.8v68.6h-2.2l-54.6-65.5v50.1c0,5,0.6,8.1,1.7,9.4c1.5,1.7,3.9,2.5,7.2,2.5h2.9v2.2h-28.9v-2.2h2.9
		c3.5,0,6.1-1,7.5-3.1c0.9-1.3,1.3-4.2,1.3-8.8v-56.6c-2.4-2.8-4.2-4.6-5.5-5.5c-1.2-0.9-3.1-1.7-5.5-2.5c-1.2-0.4-3-0.5-5.4-0.5
		V850.9z"/>
	<path d="M330.5,930.1v2.2H295v-2.2h2.9c3.4,0,5.9-1,7.5-2.9c1-1.3,1.5-4.4,1.5-9.2v-52.6c0-4.1-0.3-6.8-0.8-8.2
		c-0.4-1-1.2-1.9-2.5-2.6c-1.8-1-3.7-1.4-5.6-1.4H295v-2.2h35.5v2.2h-3c-3.4,0-5.8,1-7.4,2.9c-1,1.3-1.5,4.4-1.5,9.2v52.6
		c0,4.1,0.3,6.8,0.8,8.2c0.4,1,1.3,1.9,2.6,2.6c1.8,1,3.6,1.4,5.6,1.4H330.5z"/>
	<path d="M422.4,850.9v2.2c-2.9,0.5-5.2,1.4-6.7,2.8c-2.2,2-4.1,5-5.7,9l-28.9,69.2h-2.3L347.8,864c-1.6-3.6-2.7-5.8-3.4-6.6
		c-1-1.2-2.3-2.2-3.8-2.9c-1.5-0.7-3.5-1.1-6-1.3v-2.2h33.9v2.2c-3.8,0.4-6.3,1-7.5,1.9c-1.1,0.9-1.7,2.1-1.7,3.5
		c0,2,0.9,5.1,2.8,9.4l21.1,47.7l19.6-47.1c1.9-4.6,2.9-7.9,2.9-9.7c0-1.2-0.6-2.3-1.8-3.3c-1.2-1.1-3.2-1.8-6-2.2
		c-0.2,0-0.6-0.1-1-0.2v-2.2H422.4z"/>
	<path d="M450.1,855.4v32.2h18.2c4.7,0,7.9-0.7,9.5-2.1c2.1-1.8,3.3-5.1,3.5-9.7h2.3V904h-2.3c-0.6-4-1.1-6.5-1.7-7.6
		c-0.7-1.4-1.9-2.5-3.6-3.3c-1.7-0.8-4.2-1.2-7.7-1.2h-18.2v26.8c0,3.6,0.2,5.8,0.5,6.6c0.3,0.8,0.9,1.4,1.7,1.9
		c0.8,0.5,2.4,0.7,4.6,0.7H471c4.7,0,8.1-0.3,10.2-1s4.2-1.9,6.1-3.8c2.5-2.5,5.1-6.2,7.8-11.2h2.4l-7.2,20.4h-63.9v-2.2h2.9
		c2,0,3.8-0.5,5.6-1.4c1.3-0.6,2.2-1.6,2.7-2.9c0.5-1.3,0.7-3.9,0.7-7.9v-52.9c0-5.2-0.5-8.3-1.6-9.5c-1.5-1.6-3.9-2.4-7.3-2.4h-2.9
		v-2.2h63.9l0.9,17.8h-2.4c-0.9-4.3-1.8-7.2-2.8-8.8c-1-1.6-2.6-2.8-4.6-3.7c-1.6-0.6-4.5-0.9-8.6-0.9H450.1z"/>
	<path d="M585,932.3h-22.1l-28.1-38c-2.1,0.1-3.8,0.1-5.1,0.1c-0.5,0-1.1,0-1.7,0c-0.6,0-1.2,0-1.9-0.1v23.6c0,5.1,0.6,8.3,1.7,9.5
		c1.5,1.8,3.9,2.6,7,2.6h3.2v2.2h-35.5v-2.2h3.1c3.5,0,6-1.1,7.5-3.4c0.9-1.2,1.3-4.2,1.3-8.8v-52.6c0-5.1-0.6-8.3-1.7-9.5
		c-1.6-1.8-4-2.6-7.1-2.6h-3.1v-2.2h30.2c8.8,0,15.3,0.6,19.5,1.9s7.7,3.6,10.6,7c2.9,3.4,4.4,7.4,4.4,12.1c0,5-1.7,9.3-5,13
		s-8.5,6.3-15.4,7.8l17.1,23.3c3.9,5.4,7.3,8.9,10.1,10.7c2.8,1.8,6.5,2.9,11,3.4V932.3z M526.2,890.5c0.8,0,1.4,0,2,0
		c0.6,0,1,0,1.4,0c7.9,0,13.9-1.7,17.9-5s6-7.6,6-12.8c0-5.1-1.6-9.2-4.9-12.4c-3.2-3.2-7.5-4.8-12.9-4.8c-2.4,0-5.6,0.4-9.6,1.1
		V890.5z"/>
	<path d="M641.3,849.1v28.1h-2.3c-0.7-5.4-2-9.7-3.9-12.9c-1.9-3.2-4.6-5.7-8.1-7.6c-3.5-1.9-7.1-2.8-10.9-2.8
		c-4.2,0-7.7,1.3-10.5,3.8c-2.8,2.5-4.2,5.4-4.2,8.7c0,2.5,0.9,4.7,2.6,6.8c2.5,3,8.5,7,18,12c7.7,4.1,13,7.2,15.9,9.4
		c2.8,2.2,5,4.7,6.5,7.7c1.5,3,2.3,6.1,2.3,9.3c0,6.2-2.4,11.5-7.3,15.9c-4.9,4.5-11.1,6.7-18.8,6.7c-2.4,0-4.7-0.2-6.8-0.5
		c-1.3-0.2-3.9-0.9-7.9-2.2c-4-1.3-6.5-1.9-7.5-1.9c-1,0-1.8,0.3-2.4,0.9c-0.6,0.6-1,1.8-1.3,3.7h-2.3v-27.9h2.3
		c1.1,5.8,2.5,10.2,4.3,13.1c1.8,2.9,4.5,5.3,8.2,7.2c3.7,1.9,7.7,2.9,12.1,2.9c5.1,0,9.1-1.3,12.1-4c3-2.6,4.4-5.8,4.4-9.4
		c0-2-0.6-4-1.7-6.1c-1.1-2-2.9-3.9-5.2-5.7c-1.6-1.2-5.9-3.7-13-7.6s-12.1-7-15.1-9.3c-3-2.3-5.3-4.9-6.8-7.7
		c-1.5-2.8-2.3-5.9-2.3-9.2c0-5.8,2.3-10.9,6.8-15.1c4.6-4.2,10.4-6.3,17.4-6.3c4.4,0,9.1,1.1,14,3.2c2.3,1,3.9,1.5,4.8,1.5
		c1.1,0,1.9-0.3,2.6-0.9s1.2-1.9,1.6-3.7H641.3z"/>
	<path d="M692.2,930.1v2.2h-35.5v-2.2h2.9c3.4,0,5.9-1,7.5-2.9c1-1.3,1.5-4.4,1.5-9.2v-52.6c0-4.1-0.3-6.8-0.8-8.2
		c-0.4-1-1.2-1.9-2.5-2.6c-1.8-1-3.7-1.4-5.6-1.4h-2.9v-2.2h35.5v2.2h-3c-3.4,0-5.8,1-7.4,2.9c-1,1.3-1.5,4.4-1.5,9.2v52.6
		c0,4.1,0.3,6.8,0.8,8.2c0.4,1,1.3,1.9,2.6,2.6c1.8,1,3.6,1.4,5.6,1.4H692.2z"/>
	<path d="M767.7,850.9l0.9,19.1h-2.3c-0.4-3.4-1.1-5.8-1.8-7.2c-1.3-2.3-2.9-4-5-5.1c-2.1-1.1-4.9-1.6-8.3-1.6h-11.7v62.2
		c0,5,0.6,8.1,1.7,9.4c1.5,1.7,3.9,2.5,7.2,2.5h2.9v2.2H716v-2.2h2.9c3.5,0,6-1,7.5-3.1c0.9-1.3,1.3-4.2,1.3-8.8V856h-10
		c-3.9,0-6.6,0.3-8.3,0.8c-2.1,0.8-3.9,2.2-5.4,4.4c-1.5,2.2-2.4,5.1-2.7,8.8H699l1-19.1H767.7z"/>
	<path d="M819,905.1h-32.1l-5.6,12.8c-1.4,3.2-2.1,5.5-2.1,7.1c0,1.2,0.6,2.3,1.8,3.3c1.2,0.9,3.8,1.5,7.8,1.8v2.2h-26.1v-2.2
		c3.5-0.6,5.7-1.4,6.7-2.3c2.1-1.9,4.4-5.8,6.9-11.7l29.2-67h2.1l28.9,67.7c2.3,5.4,4.4,9,6.3,10.6s4.5,2.5,7.9,2.7v2.2H818v-2.2
		c3.3-0.2,5.5-0.7,6.7-1.6c1.2-0.9,1.7-2,1.7-3.4c0-1.8-0.8-4.5-2.4-8.3L819,905.1z M817.3,900.6l-14.1-32.9l-14.4,32.9H817.3z"/>
	<path d="M936.7,932.3h-22.1l-28.1-38c-2.1,0.1-3.8,0.1-5.1,0.1c-0.5,0-1.1,0-1.7,0s-1.2,0-1.9-0.1v23.6c0,5.1,0.6,8.3,1.7,9.5
		c1.5,1.8,3.9,2.6,7,2.6h3.2v2.2h-35.5v-2.2h3.1c3.5,0,6-1.1,7.5-3.4c0.9-1.2,1.3-4.2,1.3-8.8v-52.6c0-5.1-0.6-8.3-1.7-9.5
		c-1.6-1.8-4-2.6-7.1-2.6h-3.1v-2.2h30.2c8.8,0,15.3,0.6,19.5,1.9s7.7,3.6,10.6,7s4.4,7.4,4.4,12.1c0,5-1.7,9.3-5,13
		s-8.5,6.3-15.4,7.8l17.1,23.3c3.9,5.4,7.3,8.9,10.1,10.7c2.8,1.8,6.5,2.9,11,3.4V932.3z M877.8,890.5c0.8,0,1.4,0,2,0
		c0.6,0,1,0,1.4,0c7.9,0,13.9-1.7,17.9-5s6-7.6,6-12.8c0-5.1-1.6-9.2-4.9-12.4c-3.2-3.2-7.5-4.8-12.9-4.8c-2.4,0-5.6,0.4-9.6,1.1
		V890.5z"/>
	<path d="M974.2,930.1v2.2h-35.5v-2.2h2.9c3.4,0,5.9-1,7.5-2.9c1-1.3,1.5-4.4,1.5-9.2v-52.6c0-4.1-0.3-6.8-0.8-8.2
		c-0.4-1-1.2-1.9-2.5-2.6c-1.8-1-3.7-1.4-5.6-1.4h-2.9v-2.2h35.5v2.2h-3c-3.4,0-5.8,1-7.4,2.9c-1,1.3-1.5,4.4-1.5,9.2v52.6
		c0,4.1,0.3,6.8,0.8,8.2c0.4,1,1.3,1.9,2.6,2.6c1.8,1,3.6,1.4,5.6,1.4H974.2z"/>
	<path d="M1023.1,849.1c10.8,0,20.1,4,28,12c7.9,8,11.8,18,11.8,30c0,12.4-4,22.6-11.9,30.8s-17.6,12.2-28.9,12.2
		c-11.4,0-21-4-28.8-11.9c-7.8-8-11.6-18.3-11.6-30.9c0-12.9,4.5-23.5,13.4-31.6C1002.9,852.6,1012.2,849.1,1023.1,849.1z
		 M1021.9,853.5c-7.4,0-13.4,2.7-17.8,8.1c-5.6,6.7-8.4,16.6-8.4,29.5c0,13.3,2.9,23.5,8.7,30.7c4.4,5.4,10.3,8.2,17.6,8.2
		c7.8,0,14.2-3,19.3-8.9c5.1-6,7.6-15.4,7.6-28.2c0-13.9-2.8-24.3-8.4-31.1C1036,856.2,1029.8,853.5,1021.9,853.5z"/>
</g>
<g>
	<path d="M183.5,974.7l0.9,19.1h-2.3c-0.4-3.4-1.1-5.8-1.8-7.2c-1.3-2.3-2.9-4-5-5.1s-4.9-1.6-8.3-1.6h-11.7v62.2
		c0,5,0.6,8.1,1.7,9.4c1.5,1.7,3.9,2.5,7.2,2.5h2.9v2.2h-35.1v-2.2h2.9c3.5,0,6-1,7.5-3.1c0.9-1.3,1.3-4.2,1.3-8.8v-62.2h-10
		c-3.9,0-6.6,0.3-8.3,0.8c-2.1,0.8-3.9,2.2-5.4,4.4c-1.5,2.2-2.4,5.1-2.7,8.8h-2.3l1-19.1H183.5z"/>
	<path d="M307.2,1056H285l-28.1-38c-2.1,0.1-3.8,0.1-5.1,0.1c-0.5,0-1.1,0-1.7,0c-0.6,0-1.2,0-1.9-0.1v23.6c0,5.1,0.6,8.3,1.7,9.5
		c1.5,1.8,3.9,2.6,7,2.6h3.2v2.2h-35.5v-2.2h3.1c3.5,0,6-1.1,7.5-3.4c0.9-1.2,1.3-4.2,1.3-8.8v-52.6c0-5.1-0.6-8.3-1.7-9.5
		c-1.6-1.8-4-2.6-7.1-2.6h-3.1v-2.2h30.2c8.8,0,15.3,0.6,19.5,1.9c4.2,1.3,7.7,3.6,10.6,7c2.9,3.4,4.4,7.4,4.4,12.1
		c0,5-1.7,9.3-5,13c-3.3,3.7-8.5,6.3-15.4,7.8l17.1,23.3c3.9,5.4,7.3,8.9,10.1,10.7c2.8,1.8,6.5,2.9,11,3.4V1056z M248.3,1014.2
		c0.8,0,1.4,0,2,0c0.6,0,1,0,1.4,0c7.9,0,13.9-1.7,17.9-5c4-3.4,6-7.6,6-12.8c0-5.1-1.6-9.2-4.9-12.4c-3.2-3.2-7.5-4.8-12.9-4.8
		c-2.4,0-5.6,0.4-9.6,1.1V1014.2z"/>
	<path d="M379.7,1053.8v2.2h-35.5v-2.2h2.9c3.4,0,5.9-1,7.5-2.9c1-1.3,1.5-4.4,1.5-9.2v-52.6c0-4.1-0.3-6.8-0.8-8.2
		c-0.4-1-1.2-1.9-2.5-2.6c-1.8-1-3.7-1.4-5.6-1.4h-2.9v-2.2h35.5v2.2h-3c-3.4,0-5.8,1-7.4,2.9c-1,1.3-1.5,4.4-1.5,9.2v52.6
		c0,4.1,0.3,6.8,0.8,8.2c0.4,1,1.3,1.9,2.6,2.6c1.8,1,3.6,1.4,5.6,1.4H379.7z"/>
	<path d="M489.6,1033.5l2,0.4l-7.1,22.1h-64.2v-2.2h3.1c3.5,0,6-1.1,7.5-3.4c0.9-1.3,1.3-4.2,1.3-8.9v-52.5c0-5.1-0.6-8.3-1.7-9.5
		c-1.6-1.8-4-2.6-7.1-2.6h-3.1v-2.2h37.5v2.2c-4.4,0-7.5,0.4-9.3,1.2c-1.8,0.8-3,1.9-3.6,3.2c-0.7,1.3-1,4.3-1,9.2v51.1
		c0,3.3,0.3,5.6,1,6.8c0.5,0.8,1.2,1.5,2.3,1.9c1,0.4,4.2,0.6,9.5,0.6h6.1c6.4,0,10.8-0.5,13.4-1.4c2.6-0.9,4.9-2.5,7-4.9
		C485.4,1042.3,487.5,1038.6,489.6,1033.5z"/>
	<path d="M568,1053.8v2.2h-35.5v-2.2h2.9c3.4,0,5.9-1,7.5-2.9c1-1.3,1.5-4.4,1.5-9.2v-52.6c0-4.1-0.3-6.8-0.8-8.2
		c-0.4-1-1.2-1.9-2.5-2.6c-1.8-1-3.7-1.4-5.6-1.4h-2.9v-2.2H568v2.2h-3c-3.4,0-5.8,1-7.4,2.9c-1,1.3-1.5,4.4-1.5,9.2v52.6
		c0,4.1,0.3,6.8,0.8,8.2c0.4,1,1.3,1.9,2.6,2.6c1.8,1,3.6,1.4,5.6,1.4H568z"/>
	<path d="M604.5,974.7H627l50.7,61v-46.9c0-5-0.6-8.1-1.7-9.4c-1.5-1.7-3.9-2.5-7.2-2.5h-2.9v-2.2h28.9v2.2h-2.9c-3.5,0-6,1-7.5,3.1
		c-0.9,1.3-1.3,4.2-1.3,8.8v68.6h-2.2l-54.6-65.5v50.1c0,5,0.6,8.1,1.7,9.4c1.5,1.7,3.9,2.5,7.2,2.5h2.9v2.2h-28.9v-2.2h2.9
		c3.5,0,6.1-1,7.5-3.1c0.9-1.3,1.3-4.2,1.3-8.8v-56.6c-2.4-2.8-4.2-4.6-5.5-5.5s-3.1-1.7-5.5-2.5c-1.2-0.4-3-0.5-5.4-0.5V974.7z"/>
	<path d="M808.4,972.8l2.1,25.7h-2.1c-2.2-6.4-5-11.2-8.4-14.5c-4.9-4.7-11.3-7-19-7c-10.6,0-18.6,4.1-24.1,12.3
		c-4.6,6.9-6.9,15.2-6.9,24.7c0,7.8,1.5,14.8,4.6,21.2s7.1,11.1,12,14.1c5,3,10,4.5,15.3,4.5c3.1,0,6-0.4,8.9-1.1
		c2.9-0.8,5.6-1.9,8.3-3.4v-23.5c0-4.1-0.3-6.7-0.9-8s-1.6-2.2-2.9-2.9s-3.7-1-7-1v-2.3h32.1v2.3h-1.5c-3.2,0-5.4,1-6.5,3.1
		c-0.8,1.5-1.2,4.4-1.2,8.8v24.9c-4.7,2.5-9.3,4.3-13.9,5.5c-4.6,1.2-9.6,1.7-15.2,1.7c-16,0-28.2-5-36.5-15.1
		c-6.2-7.6-9.4-16.3-9.4-26.2c0-7.2,1.8-14,5.3-20.6c4.2-7.8,9.9-13.8,17.1-18c6.1-3.5,13.2-5.2,21.5-5.2c3,0,5.8,0.2,8.2,0.7
		c2.5,0.5,6,1.5,10.5,3.2c2.3,0.8,3.8,1.3,4.6,1.3c0.8,0,1.4-0.3,2-1c0.6-0.7,0.9-2.1,1-4.1H808.4z"/>
	<path d="M916.8,976.9v-2.2h29.3v2.2H943c-3.3,0-5.8,1.3-7.5,4c-0.9,1.2-1.3,4.1-1.3,8.6v33c0,8.2-0.8,14.5-2.5,19
		c-1.7,4.5-4.9,8.4-9.7,11.6s-11.4,4.8-19.7,4.8c-9,0-15.9-1.5-20.6-4.6s-8-7.2-10-12.4c-1.3-3.6-2-10.2-2-20v-31.8
		c0-5-0.7-8.3-2.1-9.8c-1.4-1.6-3.7-2.3-6.8-2.3h-3.1v-2.2h35.8v2.2h-3.2c-3.4,0-5.9,1.1-7.3,3.2c-1,1.4-1.5,4.4-1.5,9v35.5
		c0,3.2,0.3,6.8,0.9,10.9c0.6,4.1,1.7,7.3,3.2,9.5c1.5,2.3,3.8,4.2,6.7,5.6c2.9,1.5,6.5,2.2,10.7,2.2c5.4,0,10.3-1.2,14.5-3.5
		s7.2-5.3,8.8-8.9c1.6-3.6,2.4-9.7,2.4-18.4v-32.9c0-5.1-0.6-8.3-1.7-9.5c-1.6-1.8-4-2.6-7.1-2.6H916.8z M894.2,953.6
		c1.9,0,3.5,0.6,4.7,1.9c1.3,1.3,1.9,2.8,1.9,4.6c0,1.8-0.7,3.3-2,4.6c-1.3,1.3-2.9,1.9-4.6,1.9c-1.8,0-3.4-0.6-4.7-1.9
		c-1.3-1.3-2-2.8-2-4.6c0-1.8,0.6-3.3,1.9-4.6C890.8,954.2,892.3,953.6,894.2,953.6z M915.7,953.6c1.8,0,3.4,0.6,4.7,1.9
		c1.3,1.3,1.9,2.8,1.9,4.6c0,1.8-0.6,3.3-1.9,4.6c-1.3,1.3-2.8,1.9-4.7,1.9s-3.4-0.6-4.7-1.9s-2-2.8-2-4.6c0-1.8,0.7-3.3,2-4.6
		C912.3,954.2,913.9,953.6,915.7,953.6z"/>
	<path d="M1008.7,979.1v32.2h18.2c4.7,0,7.9-0.7,9.5-2.1c2.1-1.8,3.3-5.1,3.5-9.7h2.3v28.3h-2.3c-0.6-4-1.1-6.5-1.7-7.6
		c-0.7-1.4-1.9-2.5-3.6-3.3c-1.7-0.8-4.2-1.2-7.7-1.2h-18.2v26.8c0,3.6,0.2,5.8,0.5,6.6c0.3,0.8,0.9,1.4,1.7,1.9
		c0.8,0.5,2.4,0.7,4.6,0.7h14.1c4.7,0,8.1-0.3,10.2-1s4.2-1.9,6.1-3.8c2.5-2.5,5.1-6.2,7.8-11.2h2.4l-7.2,20.4h-63.9v-2.2h2.9
		c2,0,3.8-0.5,5.6-1.4c1.3-0.6,2.2-1.6,2.7-2.9c0.5-1.3,0.7-3.9,0.7-7.9v-52.9c0-5.2-0.5-8.3-1.6-9.5c-1.5-1.6-3.9-2.4-7.3-2.4h-2.9
		v-2.2h63.9l0.9,17.8h-2.4c-0.9-4.3-1.8-7.2-2.8-8.8c-1-1.6-2.6-2.8-4.6-3.7c-1.6-0.6-4.5-0.9-8.6-0.9H1008.7z"/>
</g>
<polygon class="st0" points="111,1101.5 493.6,1110 493.6,1093 "/>
<polygon class="st1" points="1075.3,1101.5 692.7,1093 692.7,1110 "/>
</svg>
